<?xml version="1.0" standalone="no"?><!DOCTYPE svg PUBLIC "-//W3C//DTD SVG 1.1//EN" "http://www.w3.org/Graphics/SVG/1.1/DTD/svg11.dtd"><svg class="icon" height="512" viewBox="0 0 1024 1024" version="1.1" xmlns="http://www.w3.org/2000/svg"><path d="M764.30184 328.790825a177.740118 177.740118 0 0 1-118.682698-90.289709L549.082976 32.368009c-20.442953-42.589485-53.378821-42.589485-73.253914 0L378.725036 238.501116a177.740118 177.740118 0 0 1-118.682699 90.289709l-216.922444 32.935868c-44.860924 6.814318-56.78598 39.750186-22.714392 73.253914l156.729305 160.136464a191.368753 191.368753 0 0 1 45.428785 145.939969l-36.910888 227.14392c-7.950037 47.132363 18.739373 67.575316 56.785981 45.428784L438.918175 908.575681a170.35794 170.35794 0 0 1 146.507828 0l194.208052 106.757643c40.318046 22.146532 67.007456 0 56.78598-45.428784l-36.910887-227.143921a191.368753 191.368753 0 0 1 45.428784-145.939968l156.729305-160.704324c32.368009-33.503728 22.146532-66.439597-22.714392-73.253914z" fill="#009CFF" /></svg>